 <svg version="1.0" xmlns="http://www.w3.org/2000/svg" width="700.000000pt" height="611.000000pt" viewBox="0 0 700.000000 611.000000" preserveAspectRatio="xMidYMid meet">
<metadata>
Created by potrace 1.12, written by Peter Selinger 2001-2015
</metadata>
<g transform="translate(0.000000,611.000000) scale(0.100000,-0.100000)" fill="#000000" stroke="none">
<path d="M1770 5648 c-317 -45 -603 -275 -715 -573 -42 -112 -57 -192 -64
-344 l-6 -143 -128 -2 -127 -1 -3 -533 -2 -532 133 0 132 0 0 -1362 c0 -1499
-2 -1438 62 -1568 65 -133 221 -252 367 -280 89 -17 432 -13 505 6 173 45 309
168 374 342 23 61 26 85 30 254 l4 188 1074 0 1074 0 0 -172 c0 -191 9 -241
60 -345 63 -127 215 -243 358 -272 83 -17 435 -14 507 4 143 36 269 132 338
256 66 119 61 14 67 1544 l5 1400 133 3 132 3 0 535 0 536 -132 -3 -133 -3 -6
159 c-5 116 -12 181 -27 235 -81 291 -286 516 -564 620 -157 58 -36 54 -1783
56 -954 1 -1626 -2 -1665 -8z m3353 -547 c81 -40 128 -122 146 -254 7 -51 11
-373 11 -916 l0 -838 -23 -34 c-78 -117 -403 -281 -744 -378 -722 -204 -1406
-214 -2112 -30 -403 105 -756 273 -851 406 l-25 36 0 821 c0 740 2 828 17 894
43 182 129 285 261 312 23 4 769 7 1657 6 l1615 -1 48 -24z m-3050 -2951 c242
-91 334 -390 186 -607 -38 -56 -90 -97 -169 -135 -59 -29 -74 -32 -160 -33
-87 0 -101 3 -162 32 -257 121 -323 439 -134 641 49 52 137 105 202 122 58 14
171 5 237 -20z m2917 8 c96 -29 202 -114 245 -199 62 -120 59 -278 -9 -393
-35 -59 -117 -133 -184 -164 -51 -24 -69 -27 -167 -27 -102 0 -114 2 -165 29
-128 67 -197 154 -226 284 -14 64 -15 88 -6 141 42 246 280 399 512 329z"></path>
</g>
</svg>