<svg data-name="Layer 1" xmlns="http://www.w3.org/2000/svg" viewBox="0 0 96 96"><defs><style>.cls-1{fill:#262728;}</style></defs><polygon class="cls-1" points="23.18 96 16 96 27.68 76 34.86 76 23.18 96"/><polygon class="cls-1" points="72.82 96 80 96 70.98 76 63.8 76 72.82 96"/><rect class="cls-1" x="24" y="80" width="48" height="4"/><rect class="cls-1" x="24" y="92" width="56" height="4"/><path class="cls-1" d="M80,16A12,12,0,0,0,68,4h0V0H28V4h0A12,12,0,0,0,16,16V54l5.65,6-4.4,4c-1.33,0-1.74,2.32-.53,2.92,0,0,30.95,5.25,31.28,5.08l31.28-5.12c1.21-.6.81-2.88-0.53-2.88L73.6,59.7,80,54V16ZM36,4H60V8H36V4ZM34,64a6,6,0,1,1,6-6A6,6,0,0,1,34,64Zm28,0a6,6,0,1,1,6-6C68,61.31,63.44,64,62,64ZM72,41c0,2.88-9.73,7-24,7s-24-4.08-24-7V20c0-3.85,3.92-4,8-4H64c4,0,8,.15,8,4V41Z"/></svg>
